<?xml version="1.0" encoding="utf-8"?>
<!-- Generator: Adobe Illustrator 26.0.0, SVG Export Plug-In . SVG Version: 6.00 Build 0)  -->
<svg version="1.1" id="Capa_1" xmlns="http://www.w3.org/2000/svg" xmlns:xlink="http://www.w3.org/1999/xlink" x="0px" y="0px"
	 viewBox="0 0 795 276.14" style="enable-background:new 0 0 795 276.14;" xml:space="preserve">
<style type="text/css">
	.st0{fill:#007ACC;}
	.st1{fill-rule:evenodd;clip-rule:evenodd;fill:#007ACC;stroke:#007ACC;stroke-width:0.5669;stroke-miterlimit:22.9256;}
</style>
<g>
	<path class="st0" d="M159.93,169.06c-1.11,2.03,1.8,6.77,6.96,11.29l2.44,2.12h-1.8c-1.7,0-2.17-0.37-7.93-6.04
		c-4.24-4.24-6.31-6-6.82-5.81c-0.42,0.19-0.74,0.65-0.74,1.06c0,0.97,5.02,6.18,8.43,8.71l2.63,2.03l-2.17,0.28
		c-1.25,0.14-2.49,0.32-2.86,0.37c-0.37,0.05-0.88,0.46-1.15,0.92c-0.65,1.06,0.64,2.17,2.58,2.17h1.24l-2.26,3
		c-3.36,4.42-4.7,6.91-4.52,8.39c0.23,1.94,1.01,1.57,3.04-1.48c1.01-1.52,3.41-4.38,5.35-6.36c3.09-3.18,3.64-3.55,5.21-3.55h1.71
		l-2.12,2.16c-2.44,2.54-5.9,8.53-5.9,10.33c0,0.69,0.27,1.48,0.64,1.75c0.55,0.46,0.83,0.19,1.57-1.43
		c1.01-2.31,4.1-6.32,7.84-10.19l2.58-2.63h5.95l-2.12,1.43c-3.87,2.54-8.39,9.13-8.07,11.75c0.18,1.71,1.2,1.94,1.75,0.42
		c0.28-0.69,2.95-3.78,6.04-6.82c3.04-3.09,5.67-5.9,5.9-6.22c0.28-0.51,7.28-0.65,36.14-0.88l35.77-0.28l1.2,1.43
		c2.53,3,6.77,2.95,9.31-0.14l1.29-1.52l40.01-0.32c35.5-0.32,39.97-0.28,39.97,0.32c0,0.41-0.32,1.61-0.69,2.67
		c-1.47,4.19-0.78,4.38,5.95,1.38c2.9-1.29,7.14-2.77,9.36-3.32c2.21-0.51,4.52-1.11,5.12-1.34c1.8-0.69,1.01-3.18-1.01-3.18
		c-0.51,0-1.52-0.18-2.31-0.42c-0.78-0.23-2.86-0.73-4.66-1.15c-1.75-0.42-5.35-1.8-7.97-3.09c-5.99-3-7.56-2.58-4.93,1.24
		c1.43,2.08,1.43,2.49,0.14,2.54c-0.6,0-18.67,0.19-40.24,0.42c-35.36,0.32-39.23,0.28-39.74-0.37c-1.15-1.47-3.18-2.4-5.16-2.4
		c-1.66,0-2.26,0.28-3.55,1.57l-1.57,1.57l-27.29,0.28c-15.03,0.14-31.72,0.41-37.06,0.55l-9.68,0.28l-3.04-4.06
		c-3.41-4.65-3.92-5.53-4.7-8.2c-0.6-2.12-1.89-2.72-2.9-1.38c-1.57,2.17,0.18,6.91,4.15,10.92l2.54,2.63l-2.81-0.04l-2.86-0.05
		l-3.5-4.43c-1.94-2.44-4.29-5.67-5.21-7.14C161.64,168.09,160.72,167.59,159.93,169.06L159.93,169.06z"/>
	<path class="st1" d="M391.54,177.04c4.11,0,7.45,3.34,7.45,7.45c0,4.12-3.34,7.45-7.45,7.45c-4.12,0-7.45-3.33-7.45-7.45
		C384.09,180.38,387.43,177.04,391.54,177.04L391.54,177.04z"/>
	<path class="st0" d="M623.15,169.06c1.11,2.03-1.8,6.77-6.96,11.29l-2.44,2.12h1.8c1.7,0,2.17-0.37,7.93-6.04
		c4.24-4.24,6.31-6,6.82-5.81c0.42,0.19,0.74,0.65,0.74,1.06c0,0.97-5.02,6.18-8.43,8.71l-2.63,2.03l2.17,0.28
		c1.25,0.14,2.49,0.32,2.86,0.37c0.37,0.05,0.88,0.46,1.15,0.92c0.65,1.06-0.64,2.17-2.58,2.17h-1.24l2.26,3
		c3.36,4.42,4.7,6.91,4.52,8.39c-0.23,1.94-1.01,1.57-3.04-1.48c-1.01-1.52-3.41-4.38-5.35-6.36c-3.09-3.18-3.64-3.55-5.21-3.55
		h-1.71l2.12,2.16c2.44,2.54,5.9,8.53,5.9,10.33c0,0.69-0.27,1.48-0.64,1.75c-0.55,0.46-0.83,0.19-1.57-1.43
		c-1.01-2.31-4.1-6.32-7.84-10.19l-2.58-2.63h-5.95l2.12,1.43c3.87,2.54,8.39,9.13,8.07,11.75c-0.18,1.71-1.2,1.94-1.75,0.42
		c-0.28-0.69-2.95-3.78-6.04-6.82c-3.04-3.09-5.67-5.9-5.9-6.22c-0.28-0.51-7.28-0.65-36.14-0.88l-35.77-0.28l-1.2,1.43
		c-2.53,3-6.77,2.95-9.31-0.14l-1.29-1.52l-40.01-0.32c-35.5-0.32-39.97-0.28-39.97,0.32c0,0.41,0.32,1.61,0.69,2.67
		c1.47,4.19,0.78,4.38-5.95,1.38c-2.9-1.29-7.14-2.77-9.36-3.32c-2.21-0.51-4.52-1.11-5.12-1.34c-1.8-0.69-1.01-3.18,1.01-3.18
		c0.51,0,1.52-0.18,2.31-0.42c0.78-0.23,2.86-0.73,4.66-1.15c1.75-0.42,5.35-1.8,7.97-3.09c5.99-3,7.56-2.58,4.93,1.24
		c-1.43,2.08-1.43,2.49-0.14,2.54c0.6,0,18.67,0.19,40.24,0.42c35.36,0.32,39.23,0.28,39.74-0.37c1.15-1.47,3.18-2.4,5.16-2.4
		c1.66,0,2.26,0.28,3.55,1.57l1.57,1.57l27.29,0.28c15.03,0.14,31.72,0.41,37.06,0.55l9.68,0.28l3.04-4.06
		c3.41-4.65,3.92-5.53,4.7-8.2c0.6-2.12,1.89-2.72,2.9-1.38c1.57,2.17-0.18,6.91-4.15,10.92l-2.54,2.63l2.81-0.04l2.86-0.05
		l3.5-4.43c1.94-2.44,4.29-5.67,5.21-7.14C621.45,168.09,622.37,167.59,623.15,169.06L623.15,169.06z"/>
	<polygon points="211.28,209.08 200.29,209.08 200.29,243.14 195.83,243.14 195.83,209.08 184.84,209.08 184.84,205.05 
		211.28,205.05 211.28,209.08 	"/>
	<path d="M238.65,243.14h-4.35v-4.31h-0.11c-1.8,3.31-4.61,4.96-8.4,4.96c-6.49,0-9.72-3.86-9.72-11.59v-16.27h4.35v15.59
		c0,5.75,2.19,8.62,6.58,8.62c2.12,0,3.86-0.79,5.23-2.36c1.37-1.57,2.06-3.62,2.06-6.16v-15.7h4.35V243.14L238.65,243.14z"/>
	<path d="M285.62,243.14h-4.35v-4.59h-0.11c-2.01,3.49-5.13,5.24-9.35,5.24c-3.42,0-6.16-1.22-8.21-3.65
		c-2.04-2.44-3.06-5.76-3.06-9.97c0-4.5,1.13-8.11,3.4-10.82c2.27-2.71,5.29-4.07,9.06-4.07c3.75,0,6.46,1.46,8.16,4.39h0.11v-16.8
		h4.35V243.14L285.62,243.14z M281.26,230.84v-4.03c0-2.2-0.73-4.07-2.18-5.59c-1.46-1.53-3.3-2.3-5.53-2.3
		c-2.66,0-4.75,0.98-6.28,2.93c-1.52,1.96-2.29,4.66-2.29,8.11c0,3.15,0.73,5.63,2.19,7.46c1.46,1.82,3.42,2.73,5.89,2.73
		c2.43,0,4.4-0.88,5.91-2.64C280.5,235.75,281.26,233.53,281.26,230.84L281.26,230.84z"/>
	<path d="M296.65,209.02c-0.78,0-1.45-0.26-2-0.8c-0.55-0.53-0.82-1.21-0.82-2.02c0-0.81,0.27-1.49,0.82-2.03
		c0.55-0.54,1.23-0.81,2-0.81c0.8,0,1.48,0.27,2.04,0.81c0.56,0.54,0.84,1.22,0.84,2.03c0,0.78-0.28,1.45-0.84,2
		C298.13,208.75,297.45,209.02,296.65,209.02L296.65,209.02z M298.78,243.14h-4.35v-27.21h4.35V243.14L298.78,243.14z"/>
	<path d="M327.08,243.14h-4.35v-4.25h-0.11c-1.9,3.27-4.68,4.91-8.37,4.91c-2.71,0-4.84-0.72-6.37-2.16
		c-1.53-1.43-2.3-3.34-2.3-5.71c0-5.09,2.99-8.05,8.98-8.89l8.16-1.14c0-4.64-1.87-6.96-5.6-6.96c-3.28,0-6.23,1.12-8.87,3.37v-4.46
		c2.68-1.7,5.75-2.56,9.24-2.56c6.39,0,9.59,3.38,9.59,10.16V243.14L327.08,243.14z M322.73,229.38l-6.57,0.91
		c-2.02,0.28-3.55,0.79-4.57,1.51c-1.03,0.73-1.54,2-1.54,3.83c0,1.33,0.47,2.42,1.42,3.27c0.94,0.84,2.21,1.27,3.78,1.27
		c2.17,0,3.95-0.76,5.36-2.28c1.41-1.52,2.11-3.45,2.11-5.78V229.38L322.73,229.38z"/>
	<path d="M349.49,220.35c-0.76-0.59-1.86-0.88-3.3-0.88c-1.86,0-3.42,0.88-4.67,2.63c-1.25,1.75-1.88,4.15-1.88,7.17v13.87h-4.35
		v-27.21h4.35v5.61h0.11c0.61-1.91,1.57-3.41,2.85-4.48c1.28-1.08,2.7-1.61,4.28-1.61c1.14,0,2.01,0.13,2.61,0.37V220.35
		L349.49,220.35z"/>
	<path d="M356.44,209.02c-0.78,0-1.45-0.26-2-0.8c-0.55-0.53-0.82-1.21-0.82-2.02c0-0.81,0.27-1.49,0.82-2.03
		c0.55-0.54,1.23-0.81,2-0.81c0.8,0,1.48,0.27,2.04,0.81c0.56,0.54,0.84,1.22,0.84,2.03c0,0.78-0.28,1.45-0.84,2
		C357.92,208.75,357.24,209.02,356.44,209.02L356.44,209.02z M358.57,243.14h-4.35v-27.21h4.35V243.14L358.57,243.14z"/>
	<path d="M378.76,243.8c-4.02,0-7.23-1.27-9.62-3.82c-2.4-2.54-3.6-5.92-3.6-10.12c0-4.57,1.25-8.15,3.74-10.72
		c2.5-2.57,5.87-3.85,10.12-3.85c4.05,0,7.22,1.25,9.5,3.75c2.28,2.5,3.41,5.96,3.41,10.39c0,4.34-1.22,7.83-3.68,10.44
		C386.18,242.49,382.89,243.8,378.76,243.8L378.76,243.8z M379.09,218.93c-2.8,0-5.02,0.95-6.65,2.87
		c-1.62,1.91-2.44,4.54-2.44,7.91c0,3.23,0.83,5.79,2.47,7.65c1.65,1.87,3.85,2.8,6.62,2.8c2.81,0,4.98-0.92,6.49-2.75
		c1.51-1.83,2.27-4.43,2.27-7.81c0-3.41-0.75-6.04-2.27-7.89C384.07,219.85,381.9,218.93,379.09,218.93L379.09,218.93z"/>
	<path d="M418.65,239.24h-0.11v16.42h-4.35v-39.73h4.35v4.75h0.11c2.14-3.6,5.28-5.41,9.4-5.41c3.51,0,6.25,1.22,8.22,3.66
		c1.97,2.44,2.95,5.7,2.95,9.8c0,4.55-1.11,8.21-3.32,10.95c-2.22,2.74-5.25,4.11-9.1,4.11
		C423.29,243.8,420.57,242.28,418.65,239.24L418.65,239.24z M418.54,228.23v3.81c0,2.26,0.73,4.17,2.19,5.75
		c1.46,1.57,3.32,2.36,5.57,2.36c2.64,0,4.71-1.02,6.2-3.04c1.5-2.03,2.25-4.85,2.25-8.45c0-3.04-0.7-5.43-2.11-7.15
		c-1.4-1.72-3.29-2.58-5.69-2.58c-2.53,0-4.57,0.88-6.11,2.65C419.32,223.34,418.54,225.57,418.54,228.23L418.54,228.23z"/>
	<path d="M457.55,243.8c-4.02,0-7.23-1.27-9.62-3.82c-2.4-2.54-3.6-5.92-3.6-10.12c0-4.57,1.25-8.15,3.74-10.72
		c2.5-2.57,5.87-3.85,10.12-3.85c4.05,0,7.22,1.25,9.5,3.75c2.28,2.5,3.41,5.96,3.41,10.39c0,4.34-1.22,7.83-3.68,10.44
		C464.97,242.49,461.68,243.8,457.55,243.8L457.55,243.8z M457.88,218.93c-2.8,0-5.02,0.95-6.65,2.87
		c-1.62,1.91-2.44,4.54-2.44,7.91c0,3.23,0.83,5.79,2.47,7.65c1.65,1.87,3.85,2.8,6.62,2.8c2.81,0,4.98-0.92,6.49-2.75
		c1.51-1.83,2.27-4.43,2.27-7.81c0-3.41-0.75-6.04-2.27-7.89C462.86,219.85,460.69,218.93,457.88,218.93L457.88,218.93z"/>
	<path d="M492.27,220.35c-0.76-0.59-1.86-0.88-3.3-0.88c-1.86,0-3.42,0.88-4.67,2.63c-1.25,1.75-1.88,4.15-1.88,7.17v13.87h-4.35
		v-27.21h4.35v5.61h0.11c0.61-1.91,1.57-3.41,2.85-4.48c1.28-1.08,2.7-1.61,4.28-1.61c1.14,0,2.01,0.13,2.61,0.37V220.35
		L492.27,220.35z"/>
	<path d="M509.62,242.9c-1.03,0.56-2.38,0.84-4.06,0.84c-4.76,0-7.15-2.66-7.15-7.98v-16.13h-4.68v-3.7h4.68v-6.65l4.35-1.41v8.05
		h6.86v3.7h-6.86v15.37c0,1.83,0.31,3.14,0.93,3.92c0.62,0.78,1.64,1.17,3.08,1.17c1.1,0,2.04-0.3,2.84-0.91V242.9L509.62,242.9z"/>
	<path d="M534.91,243.14h-4.35v-4.25h-0.11c-1.9,3.27-4.68,4.91-8.37,4.91c-2.71,0-4.84-0.72-6.37-2.16
		c-1.53-1.43-2.3-3.34-2.3-5.71c0-5.09,2.99-8.05,8.98-8.89l8.16-1.14c0-4.64-1.87-6.96-5.6-6.96c-3.27,0-6.23,1.12-8.87,3.37v-4.46
		c2.68-1.7,5.75-2.56,9.24-2.56c6.39,0,9.59,3.38,9.59,10.16V243.14L534.91,243.14z M530.56,229.38l-6.57,0.91
		c-2.02,0.28-3.55,0.79-4.57,1.51c-1.03,0.73-1.54,2-1.54,3.83c0,1.33,0.47,2.42,1.42,3.27c0.94,0.84,2.21,1.27,3.78,1.27
		c2.17,0,3.95-0.76,5.36-2.28c1.41-1.52,2.11-3.45,2.11-5.78V229.38L530.56,229.38z"/>
	<path d="M547.58,239.24h-0.11v3.9h-4.35v-40.27h4.35v17.81h0.11c2.14-3.6,5.28-5.41,9.4-5.41c3.49,0,6.22,1.22,8.2,3.66
		c1.98,2.44,2.96,5.7,2.96,9.8c0,4.55-1.11,8.21-3.32,10.95c-2.22,2.74-5.25,4.11-9.1,4.11
		C552.14,243.8,549.42,242.28,547.58,239.24L547.58,239.24z M547.47,228.23v3.81c0,2.26,0.73,4.17,2.19,5.75
		c1.46,1.57,3.32,2.36,5.57,2.36c2.64,0,4.71-1.02,6.2-3.04c1.5-2.03,2.25-4.85,2.25-8.45c0-3.04-0.7-5.43-2.11-7.15
		c-1.4-1.72-3.29-2.58-5.69-2.58c-2.53,0-4.57,0.88-6.11,2.65C548.24,223.34,547.47,225.57,547.47,228.23L547.47,228.23z"/>
	<polygon points="579.46,243.14 575.11,243.14 575.11,202.87 579.46,202.87 579.46,243.14 	"/>
	<path d="M610.16,230.63h-19.21c0.07,3.04,0.89,5.39,2.44,7.04c1.56,1.66,3.7,2.49,6.42,2.49c3.07,0,5.88-1.02,8.45-3.05v4.08
		c-2.39,1.74-5.55,2.61-9.48,2.61c-3.84,0-6.86-1.23-9.05-3.71c-2.19-2.48-3.29-5.96-3.29-10.44c0-4.24,1.2-7.69,3.6-10.37
		c2.4-2.67,5.38-4,8.94-4c3.56,0,6.31,1.15,8.26,3.46c1.95,2.3,2.92,5.5,2.92,9.6V230.63L610.16,230.63z M605.7,226.93
		c-0.02-2.52-0.63-4.49-1.82-5.9c-1.2-1.4-2.86-2.1-4.98-2.1c-2.05,0-3.8,0.73-5.23,2.21c-1.43,1.48-2.32,3.4-2.66,5.79H605.7
		L605.7,226.93z"/>
	<polygon class="st0" points="107.24,150.73 46.71,150.73 46.71,58.49 104.94,58.49 104.94,75.36 69.48,75.36 69.48,95.91 
		102.48,95.91 102.48,112.78 69.48,112.78 69.48,133.86 107.24,133.86 107.24,150.73 	"/>
	<polygon class="st0" points="183.5,150.73 123.41,150.73 123.41,58.49 146.17,58.49 146.17,133.86 183.5,133.86 183.5,150.73 	"/>
	<polygon class="st0" points="296.91,150.73 236.82,150.73 236.82,58.49 259.59,58.49 259.59,133.86 296.91,133.86 296.91,150.73 	
		"/>
	<path class="st0" d="M399.26,150.73h-24.79l-7.06-20.56h-36.1l-6.99,20.56h-24.64l36.72-92.24h26.97L399.26,150.73L399.26,150.73z
		 M362.17,114.23l-10.9-30.97c-0.79-2.33-1.37-5.09-1.7-8.3h-0.55c-0.24,2.7-0.82,5.38-1.78,8.04l-11.02,31.23H362.17L362.17,114.23
		z"/>
	<polygon class="st0" points="482.72,75.36 453.9,75.36 453.9,150.73 431.13,150.73 431.13,75.36 402.45,75.36 402.45,58.49 
		482.72,58.49 482.72,75.36 	"/>
	<polygon class="st0" points="527.54,58.49 527.54,74.57 519.03,74.57 519.03,134.65 527.54,134.65 527.54,150.73 487.76,150.73 
		487.76,134.65 496.27,134.65 496.27,74.57 487.76,74.57 487.76,58.49 527.54,58.49 	"/>
	<path class="st0" d="M632.71,150.73H609.8l-41.62-57.96c-2.43-3.38-4.13-5.93-5.07-7.64h-0.27c0.36,3.25,0.55,8.21,0.55,14.91
		v50.69h-21.47V58.49h24.5l40.04,56.15c1.83,2.53,3.51,5.03,5.07,7.53h0.27c-0.36-2.15-0.55-6.37-0.55-12.67V58.49h21.47V150.73
		L632.71,150.73z"/>
	<path class="st0" d="M698.4,152.31c-14.46,0-26.23-4.31-35.33-12.89c-9.1-8.61-13.64-19.81-13.64-33.62
		c0-14.58,4.61-26.38,13.86-35.38c9.25-9,21.5-13.51,36.72-13.51c14.41,0,26.06,4.31,34.95,12.93c8.89,8.61,13.33,19.99,13.33,34.08
		c0,14.49-4.61,26.18-13.83,35.07C725.25,147.87,713.22,152.31,698.4,152.31L698.4,152.31z M699.39,74.83
		c-7.97,0-14.32,2.72-19,8.19c-4.69,5.47-7.04,12.71-7.04,21.72c0,9.14,2.35,16.36,7.04,21.68c4.68,5.31,10.83,7.97,18.45,7.97
		c7.83,0,14.02-2.59,18.64-7.75c4.59-5.16,6.89-12.34,6.89-21.52c0-9.55-2.23-17-6.67-22.31C713.22,77.49,707.12,74.83,699.39,74.83
		L699.39,74.83z"/>
</g>
</svg>
