<?xml version="1.0" encoding="UTF-8"?>
<!DOCTYPE svg PUBLIC "-//W3C//DTD SVG 1.1//EN" "http://www.w3.org/Graphics/SVG/1.1/DTD/svg11.dtd">
<!-- Creator: CorelDRAW 2020 (64-Bit) -->
<svg xmlns="http://www.w3.org/2000/svg" xml:space="preserve" width="16.0832mm" height="12.3612mm" version="1.1" style="shape-rendering:geometricPrecision; text-rendering:geometricPrecision; image-rendering:optimizeQuality; fill-rule:evenodd; clip-rule:evenodd"
viewBox="0 0 1608.32 1236.12"
 xmlns:xlink="http://www.w3.org/1999/xlink"
 xmlns:xodm="http://www.corel.com/coreldraw/odm/2003">
 <defs>
  <style type="text/css">
   <![CDATA[
    .fil0 {fill:black}
   ]]>
  </style>
 </defs>
 <g id="Capa_x0020_1">
  <metadata id="CorelCorpID_0Corel-Layer"/>
  <g id="_1627533578592">
   <path class="fil0" d="M1251.37 1190.83c394.02,0 408.09,-596.31 -23.54,-596.31 -38.38,0 -69.58,15.99 -102,23.54 4.18,-50.16 25.99,-111.18 44.28,-151.88 13.2,-29.39 19.66,-42.9 34.45,-67.55 14.95,-24.95 24.91,-34.89 43.38,-58.61 54.31,-69.73 143.94,-135.14 223.12,-177.04 -9.57,-41.11 -50.6,-79.87 -70.61,-117.69 -130.57,69.09 -186.94,97.3 -296.21,205.94 -180.15,179.1 -282.64,497.84 -156.42,733.15 61.1,113.93 165.78,206.45 303.55,206.45z"/>
   <path class="fil0" d="M58.75 696.53c0,142.93 7.68,245.21 100.67,362.25 190.57,239.85 554.22,129.79 554.22,-166.11 0,-174.35 -145.09,-298.15 -309.66,-298.15 -48.75,0 -79.4,14.62 -117.69,23.54 18.39,-38.33 15.68,-153.24 123.77,-276.38 49.21,-56.07 161.19,-162.83 229.31,-178.7 -22.86,-43.19 -52.03,-78.22 -78.47,-117.69 -170.11,90.01 -205.65,117.38 -327.57,245.19 -74.6,78.21 -174.58,257.23 -174.58,406.05z"/>
  </g>
 </g>
</svg>
